<mxfile host="app.diagrams.net" modified="2023-02-28T22:21:18.573Z" agent="5.0 (X11; Linux x86_64) AppleWebKit/537.36 (KHTML, like Gecko) Chrome/110.0.0.0 Safari/537.36 OPR/96.0.0.0" etag="SfsGi771emF8rl9aFLMu" version="20.8.23" type="github">
  <diagram name="Page-1" id="58cdce13-f638-feb5-8d6f-7d28b1aa9fa0">
    <mxGraphModel dx="1306" dy="771" grid="1" gridSize="10" guides="1" tooltips="1" connect="1" arrows="1" fold="1" page="1" pageScale="1" pageWidth="1100" pageHeight="850" background="none" math="0" shadow="0">
      <root>
        <mxCell id="0" />
        <mxCell id="1" parent="0" />
        <mxCell id="_iG88hI31kTDW-CX1K-c-1" value="Go&lt;br&gt;1ms" style="ellipse;whiteSpace=wrap;html=1;aspect=fixed;" vertex="1" parent="1">
          <mxGeometry x="390" y="280" width="80" height="80" as="geometry" />
        </mxCell>
        <mxCell id="_iG88hI31kTDW-CX1K-c-7" value="0/00" style="edgeStyle=orthogonalEdgeStyle;orthogonalLoop=1;jettySize=auto;html=1;exitX=1;exitY=0;exitDx=0;exitDy=0;curved=1;entryX=1;entryY=1;entryDx=0;entryDy=0;" edge="1" parent="1" source="_iG88hI31kTDW-CX1K-c-2" target="_iG88hI31kTDW-CX1K-c-2">
          <mxGeometry relative="1" as="geometry">
            <mxPoint x="800" y="380" as="targetPoint" />
            <Array as="points">
              <mxPoint x="718" y="260" />
              <mxPoint x="780" y="260" />
              <mxPoint x="780" y="380" />
              <mxPoint x="718" y="380" />
            </Array>
          </mxGeometry>
        </mxCell>
        <mxCell id="_iG88hI31kTDW-CX1K-c-2" value="Stop&lt;br&gt;1ms" style="ellipse;whiteSpace=wrap;html=1;aspect=fixed;" vertex="1" parent="1">
          <mxGeometry x="650" y="280" width="80" height="80" as="geometry" />
        </mxCell>
        <mxCell id="_iG88hI31kTDW-CX1K-c-3" value="0/10" style="curved=1;endArrow=classic;html=1;rounded=0;exitX=0.5;exitY=1;exitDx=0;exitDy=0;entryX=0.5;entryY=1;entryDx=0;entryDy=0;" edge="1" parent="1" source="_iG88hI31kTDW-CX1K-c-1" target="_iG88hI31kTDW-CX1K-c-2">
          <mxGeometry width="50" height="50" relative="1" as="geometry">
            <mxPoint x="520" y="410" as="sourcePoint" />
            <mxPoint x="570" y="360" as="targetPoint" />
            <Array as="points">
              <mxPoint x="570" y="410" />
            </Array>
          </mxGeometry>
        </mxCell>
        <mxCell id="_iG88hI31kTDW-CX1K-c-4" value="1/01" style="curved=1;endArrow=classic;html=1;rounded=0;exitX=0.5;exitY=1;exitDx=0;exitDy=0;entryX=0.5;entryY=1;entryDx=0;entryDy=0;" edge="1" parent="1">
          <mxGeometry width="50" height="50" relative="1" as="geometry">
            <mxPoint x="690" y="280" as="sourcePoint" />
            <mxPoint x="430" y="280" as="targetPoint" />
            <Array as="points">
              <mxPoint x="570" y="220" />
            </Array>
          </mxGeometry>
        </mxCell>
        <mxCell id="_iG88hI31kTDW-CX1K-c-9" value="1/00" style="edgeStyle=orthogonalEdgeStyle;curved=1;orthogonalLoop=1;jettySize=auto;html=1;exitX=0;exitY=0;exitDx=0;exitDy=0;entryX=0;entryY=1;entryDx=0;entryDy=0;" edge="1" parent="1" source="_iG88hI31kTDW-CX1K-c-1" target="_iG88hI31kTDW-CX1K-c-1">
          <mxGeometry relative="1" as="geometry">
            <Array as="points">
              <mxPoint x="402" y="260" />
              <mxPoint x="340" y="260" />
              <mxPoint x="340" y="380" />
              <mxPoint x="402" y="380" />
            </Array>
          </mxGeometry>
        </mxCell>
      </root>
    </mxGraphModel>
  </diagram>
</mxfile>
